<svg xmlns="http://www.w3.org/2000/svg" width="24" height="24" fill="none" viewBox="0 0 24 30"><path fill="#12211E" d="M26.054 7.333c-.635-.874-1.564-1.44-2.583-1.575-.125-1.315-.814-2.49-1.86-3.17a3.616 3.616 0 0 0-3.457-.288c-1.13.499-1.977 1.545-2.286 2.824-.507 2.365-1.592 4.539-3.143 6.294l-2.953 3.198c-1.634 1.69-3.66 2.87-5.863 3.413a3.815 3.815 0 0 0-1.75 1.134 4.29 4.29 0 0 0-.971 1.943 4.483 4.483 0 0 0 .59 3.402c.64.989 1.642 1.632 2.75 1.764.125 1.314.814 2.488 1.86 3.169a3.615 3.615 0 0 0 3.457.288c1.13-.499 1.977-1.545 2.286-2.823.507-2.366 1.593-4.54 3.143-6.294l2.936-3.18c1.634-1.69 3.66-2.87 5.863-3.413a3.812 3.812 0 0 0 1.75-1.134 4.291 4.291 0 0 0 .97-1.943c.279-1.262.006-2.592-.74-3.608Zm-.921 3.18c-.09.405-.28.776-.548 1.075a2.115 2.115 0 0 1-.977.622c-2.485.62-4.765 1.965-6.595 3.889l-2.936 3.18c-1.783 1.991-3.028 4.474-3.599 7.18a2.336 2.336 0 0 1-.575 1.037 2.076 2.076 0 0 1-.983.575 2.026 2.026 0 0 1-1.845-.428 2.407 2.407 0 0 1-.824-1.838 2.653 2.653 0 0 1 0-.373.981.981 0 0 0-.241-.801.83.83 0 0 0-.603-.28l-.103.056c-.766.123-1.536-.195-2.032-.84a2.501 2.501 0 0 1-.405-2.014 2.38 2.38 0 0 1 .547-1.074c.269-.299.606-.514.977-.623 2.485-.62 4.766-1.964 6.595-3.888l2.936-3.18c1.784-1.992 3.029-4.475 3.6-7.18.097-.402.293-.768.568-1.059.274-.29.616-.495.99-.591a2.025 2.025 0 0 1 1.844.428c.522.443.826 1.12.825 1.838.009.124.009.248 0 .373a.978.978 0 0 0 .247.757c.184.2.442.298.7.268.766-.123 1.536.195 2.032.84.425.577.575 1.336.405 2.051Z"/></svg>