<svg width="139" height="139" viewBox="0 0 139 139" fill="none" xmlns="http://www.w3.org/2000/svg">
<path d="M98.0771 11.8076H40.3847C24.4534 11.8076 11.5385 24.7225 11.5385 40.6538V98.3462C11.5385 114.277 24.4534 127.192 40.3847 127.192H98.0771C114.008 127.192 126.923 114.277 126.923 98.3462V40.6538C126.923 24.7225 114.008 11.8076 98.0771 11.8076Z" stroke="#CAB628" stroke-width="11.5385" stroke-linecap="round" stroke-linejoin="round"/>
<path d="M92.3079 65.8655C93.0199 70.667 92.1997 75.5706 89.9642 79.8791C87.7286 84.1876 84.1914 87.6814 79.8557 89.8637C75.52 92.046 70.6066 92.8056 65.8143 92.0344C61.022 91.2633 56.5949 89.0007 53.1627 85.5684C49.7304 82.1362 47.4678 77.7091 46.6967 72.9168C45.9255 68.1245 46.6851 63.2111 48.8674 58.8754C51.0497 54.5397 54.5435 51.0025 58.852 48.7669C63.1604 46.5313 68.0641 45.7112 72.8655 46.4232C77.7632 47.1495 82.2974 49.4317 85.7984 52.9327C89.2994 56.4337 91.5816 60.9679 92.3079 65.8655Z" stroke="#CAB628" stroke-width="11.5385" stroke-linecap="round" stroke-linejoin="round"/>
<path d="M100.962 37.7693H101.018" stroke="#CAB628" stroke-width="11.5385" stroke-linecap="round" stroke-linejoin="round"/>
</svg>
